/* XPM */
static char const* ft_xpm[] = {
"16 16 59 1",
" 	c None",
".	c #505050",
"+	c #8D8D8D",
"@	c #969696",
"#	c #7D7D7D",
"$	c #6A6A6A",
"%	c #757575",
"&	c #ABABAB",
"*	c #C0C0C0",
"=	c #BFBFBF",
"-	c #BDBDBD",
";	c #ADADAD",
">	c #878787",
",	c #8A8A8A",
"'	c #717171",
")	c #5D5D5D",
"!	c #9F9F9F",
"~	c #C6C6C6",
"{	c #C3C3C3",
"]	c #BCBCBC",
"^	c #9C9C9C",
"/	c #B9B9B9",
"(	c #B6B6B6",
"_	c #484848",
":	c #888888",
"<	c #CACACA",
"[	c #C9C9C9",
"}	c #B8B8B8",
"|	c #B0B0B0",
"1	c #C1C1C1",
"2	c #A1A1A1",
"3	c #848484",
"4	c #7C7C7C",
"5	c #C8C8C8",
"6	c #CDCDCD",
"7	c #A6A6A6",
"8	c #818181",
"9	c #9E9E9E",
"0	c #8F8F8F",
"a	c #2F2F2F",
"b	c #2C2C2C",
"c	c #CFCFCF",
"d	c #C4C4C4",
"e	c #868686",
"f	c #B2B2B2",
"g	c #B4B4B4",
"h	c #6F6F6F",
"i	c #000000",
"j	c #A8A8A8",
"k	c #AEAEAE",
"l	c #464646",
"m	c #858585",
"n	c #B1B1B1",
"o	c #CBCBCB",
"p	c #0E0E0E",
"q	c #A9A9A9",
"r	c #5A5A5A",
"s	c #2A2A2A",
"t	c #535353",
"                ",
"                ",
"                ",
"      .   +@#$  ",
"     %&*=-;>,;' ",
"   )!*~{]^#^/(  ",
" _:(<[~}+,|123  ",
" 4566[789**0ab  ",
"  ~cd@ef~ghi    ",
"  jke2{~!li     ",
"   mno-8p       ",
"   -oqri        ",
"   g0si         ",
"   ti           ",
"   i            ",
"                "};
